<?xml version="1.0" encoding="utf-8"?>
<!-- Generator: Adobe Illustrator 22.0.0, SVG Export Plug-In . SVG Version: 6.00 Build 0)  -->
<svg version="1.1" id="图层_1" xmlns="http://www.w3.org/2000/svg" xmlns:xlink="http://www.w3.org/1999/xlink" x="0px" y="0px"
	 viewBox="0 0 437.5 271" style="enable-background:new 0 0 437.5 271;" xml:space="preserve">
<style type="text/css">
	.st0{display:none;opacity:0.6;}
	.st1{display:inline;}
	.st2{fill:none;stroke:#000000;stroke-miterlimit:10;}
</style>
<g id="h_274" class="st0">
	<g class="st1">
		<polygon points="43.6,74.3 43.6,92.3 12.7,110.2 12.7,-1.5 28.2,-1.5 28.2,83.3 		"/>
	</g>
	<g class="st1">
		<polygon points="74.7,6.3 74.7,56.4 90.2,47.4 90.2,65.4 59.2,83.3 59.2,6.3 43.6,6.3 43.6,-1.5 90.2,-1.5 90.2,6.3 		"/>
	</g>
	<g class="st1">
		<polygon points="105.8,38.5 161.6,6.3 117.8,6.3 117.8,27.6 102.3,27.6 102.3,-1.5 206.1,-1.5 105.8,56.4 		"/>
	</g>
	<g class="st1">
		<polygon points="319.7,27.6 319.7,6.3 275.9,6.3 331.8,38.5 331.8,56.4 231.4,-1.5 335.2,-1.5 335.2,27.6 		"/>
	</g>
	<g class="st1">
		<polygon points="393.9,-1.5 393.9,6.3 378.3,6.3 378.3,83.3 347.3,65.4 347.3,47.4 362.8,56.4 362.8,6.3 347.3,6.3 347.3,-1.5 		
			"/>
	</g>
	<g class="st1">
		<polygon points="424.8,-1.5 424.8,110.2 393.9,92.3 393.9,74.3 409.3,83.3 409.3,-1.5 		"/>
	</g>
	<g class="st1">
		<path d="M336.9,211.6l72.4,41.8v19.1h15.5V160.8L336.9,211.6z M409.3,235.5l-41.4-23.9l41.4-23.9V235.5z"/>
	</g>
	<g class="st1">
		<rect x="347.3" y="264.7" width="46.6" height="7.8"/>
	</g>
	<g class="st1">
		<polygon points="319.7,243.4 335.2,243.4 335.2,272.5 231.4,272.5 321.3,220.6 336.8,229.6 275.9,264.7 319.7,264.7 		"/>
	</g>
	<g class="st1">
		<polygon points="117.8,243.4 117.8,264.7 161.6,264.7 100.7,229.6 116.2,220.6 206.1,272.5 102.3,272.5 102.3,243.4 		"/>
	</g>
	<g class="st1">
		<rect x="43.6" y="264.7" width="46.6" height="7.8"/>
	</g>
	<g class="st1">
		<path d="M12.7,160.8v111.7h15.5v-19.1l72.4-41.8L12.7,160.8z M28.2,187.7l41.4,23.9l-41.4,23.9V187.7z"/>
	</g>
	<g class="st1">
		<polygon points="100.9,106.4 116.5,106.4 116.5,164.6 100.9,164.6 100.9,143.3 57.2,143.3 113,175.5 113,193.4 12.7,135.5 
			102.5,83.6 118.1,92.6 57.2,127.7 100.9,127.7 		"/>
	</g>
	<g class="st1">
		<polygon points="175.1,127.7 175.1,143.3 159.6,143.3 159.6,220.3 128.5,202.4 128.5,184.4 144.1,193.4 144.1,143.3 128.5,143.3 
			128.5,127.7 		"/>
	</g>
	<g class="st1">
		<polygon points="324.5,175.5 380.3,143.3 336.6,143.3 336.6,164.6 321,164.6 321,106.4 336.6,106.4 336.6,127.7 380.3,127.7 
			319.4,92.6 335,83.6 424.8,135.5 324.5,193.4 		"/>
	</g>
	<g class="st1">
		<polygon points="293.4,143.3 293.4,193.4 309,184.4 309,202.4 277.9,220.3 277.9,143.3 262.4,143.3 262.4,127.7 309,127.7 
			309,143.3 		"/>
	</g>
	<g class="st1">
		<path d="M247,116.4l72.4-41.8l-88-50.8v223.3l31-17.9v-17.9l-15.4,8.9V116.4L247,116.4z M247,50.7l41.4,23.9L247,98.5V50.7
			L247,50.7z"/>
	</g>
	<g class="st1">
		<path d="M118.1,74.6l72.4,41.8v103.8l-15.4-8.9v17.9l30.9,17.9V23.8L118.1,74.6z M190.5,98.5l-41.4-23.9l41.4-23.9V98.5z"/>
	</g>
</g>
<g id="h_271">
	<g>
		<polygon class="st2" points="43.6,74.3 43.6,92.3 12.7,110.2 12.7,-1.5 28.2,-1.5 28.2,83.3 		"/>
	</g>
	<g>
		<polygon class="st2" points="74.7,6.3 74.7,56.4 90.2,47.4 90.2,65.4 59.2,83.3 59.2,6.3 43.6,6.3 43.6,-1.5 90.2,-1.5 90.2,6.3 
					"/>
	</g>
	<g>
		<polygon class="st2" points="105.8,38.5 161.6,6.3 117.8,6.3 117.8,27.6 102.3,27.6 102.3,-1.5 206.1,-1.5 105.8,56.4 		"/>
	</g>
	<g>
		<polygon class="st2" points="319.7,27.6 319.7,6.3 275.9,6.3 331.8,38.5 331.8,56.4 231.4,-1.5 335.2,-1.5 335.2,27.6 		"/>
	</g>
	<g>
		<polygon class="st2" points="393.9,-1.5 393.9,6.3 378.3,6.3 378.3,83.3 347.3,65.4 347.3,47.4 362.8,56.4 362.8,6.3 347.3,6.3 
			347.3,-1.5 		"/>
	</g>
	<g>
		<polygon class="st2" points="424.8,-1.5 424.8,110.2 393.9,92.3 393.9,74.3 409.3,83.3 409.3,-1.5 		"/>
	</g>
	<g>
		<path class="st2" d="M336.9,211.6l72.4,41.8v19.1h15.5V160.8L336.9,211.6z M409.3,235.5l-41.4-23.9l41.4-23.9V235.5z"/>
	</g>
	<g>
		<rect x="347.3" y="264.7" class="st2" width="46.6" height="7.8"/>
	</g>
	<g>
		<polygon class="st2" points="319.7,243.4 335.2,243.4 335.2,272.5 231.4,272.5 321.3,220.6 336.8,229.6 275.9,264.7 319.7,264.7 
					"/>
	</g>
	<g>
		<polygon class="st2" points="117.8,243.4 117.8,264.7 161.6,264.7 100.7,229.6 116.2,220.6 206.1,272.5 102.3,272.5 102.3,243.4 
					"/>
	</g>
	<g>
		<rect x="43.6" y="264.7" class="st2" width="46.6" height="7.8"/>
	</g>
	<g>
		<path class="st2" d="M12.7,160.8v111.7h15.5v-19.1l72.4-41.8L12.7,160.8z M28.2,187.7l41.4,23.9l-41.4,23.9V187.7z"/>
	</g>
	<g>
		<polygon class="st2" points="100.9,106.4 116.5,106.4 116.5,164.6 100.9,164.6 100.9,143.3 57.2,143.3 113,175.5 113,193.4 
			12.7,135.5 102.5,83.6 118.1,92.6 57.2,127.7 100.9,127.7 		"/>
	</g>
	<g>
		<polygon class="st2" points="175.1,127.7 175.1,143.3 159.6,143.3 159.6,220.3 128.5,202.4 128.5,184.4 144.1,193.4 144.1,143.3 
			128.5,143.3 128.5,127.7 		"/>
	</g>
	<g>
		<polygon class="st2" points="324.5,175.5 380.3,143.3 336.6,143.3 336.6,164.6 321,164.6 321,106.4 336.6,106.4 336.6,127.7 
			380.3,127.7 319.4,92.6 335,83.6 424.8,135.5 324.5,193.4 		"/>
	</g>
	<g>
		<polygon class="st2" points="293.4,143.3 293.4,193.4 309,184.4 309,202.4 277.9,220.3 277.9,143.3 262.4,143.3 262.4,127.7 
			309,127.7 309,143.3 		"/>
	</g>
	<g>
		<path class="st2" d="M247,116.4l72.4-41.8l-88-50.8v223.3l31-17.9v-17.9l-15.4,8.9V116.4L247,116.4z M247,50.7l41.4,23.9L247,98.5
			V50.7L247,50.7z"/>
	</g>
	<g>
		<path class="st2" d="M118.1,74.6l72.4,41.8v103.8l-15.4-8.9v17.9l30.9,17.9V23.8L118.1,74.6z M190.5,98.5l-41.4-23.9l41.4-23.9
			V98.5z"/>
	</g>
</g>
</svg>
